<svg xmlns="http://www.w3.org/2000/svg" width="32" height="32" viewBox="0 0 32 32">
    <g fill="none" fill-rule="evenodd">
        <g>
            <g>
                <g>
                    <g transform="translate(-1151 -956) translate(0 937) translate(1044 20) translate(108)">
                        <path fill="#4F5869" fill-rule="nonzero" d="M9.56 6.903c1.317 0 2.788 1.339 3.226 2.7.483 1.333.161 2.686-.886 3.77-.204.197.458 1.519 1.61 2.779 1.193 1.305 2.385 1.994 2.642 1.73.828-.944 2.058-1.338 3.24-1.011 1.48.36 2.935 1.893 3.013 3.43 0 .881-.433 1.585-1.32 2.508l-.51.52c-.989.95-2.695.807-4.537.092-4.149-1.63-7.877-5.588-9.493-10-.698-1.927-.817-3.687.187-4.725.078-.073.16-.154.264-.26.05-.05.24-.248.284-.294.836-.857 1.428-1.24 2.28-1.24zm0 .902c-.554 0-.982.277-1.666.978l-.285.295c-.113.115-.205.205-.277.273-.654.676-.555 2.14.028 3.75 1.53 4.174 5.076 7.94 8.985 9.475 1.547.6 2.982.722 3.625.104.067-.07.403-.41.497-.508.735-.764 1.066-1.303 1.067-1.848-.055-1.079-1.215-2.3-2.354-2.578-.875-.242-1.77.045-2.398.758-.819.848-2.362-.044-3.906-1.732-1.514-1.656-2.343-3.313-1.582-4.048.801-.83 1.035-1.812.67-2.82-.334-1.036-1.5-2.099-2.405-2.099zM15.59 6C19.69 6 23 9.42 23 13.672h-.872c0-3.754-2.92-6.77-6.538-6.77zm0 3.61c2.175 0 3.923 1.804 3.923 4.062h-.872c0-1.759-1.357-3.159-3.051-3.159z"/>
                        <rect width="30" height="30" stroke="#4F5869" stroke-width=".8" rx="15"/>
                    </g>
                </g>
            </g>
        </g>
    </g>
</svg>
