<svg xmlns="http://www.w3.org/2000/svg" width="32" height="32" viewBox="0 0 32 32">
    <g fill="none" fill-rule="evenodd">
        <g>
            <g>
                <g transform="translate(-1043 -956) translate(0 937) translate(1044 20)">
                    <rect width="30" height="30" stroke="#4F5869" stroke-width=".8" rx="15"/>
                    <g fill="#4F5869" fill-rule="nonzero">
                        <path d="M14.88 0H2.4C1.075.002.002 1.075 0 2.4v12.48c.002 1.325 1.075 2.398 2.4 2.4h12.48c1.325-.002 2.398-1.075 2.4-2.4V2.4c-.002-1.325-1.075-2.398-2.4-2.4zm1.44 14.88c0 .795-.645 1.44-1.44 1.44H2.4c-.795 0-1.44-.645-1.44-1.44V2.4c0-.795.645-1.44 1.44-1.44h12.48c.795 0 1.44.645 1.44 1.44v12.48z" transform="translate(6 6)"/>
                        <path d="M8.64 3.84c-2.651 0-4.8 2.149-4.8 4.8s2.149 4.8 4.8 4.8 4.8-2.149 4.8-4.8c-.003-2.65-2.15-4.797-4.8-4.8zm0 8.64c-2.12 0-3.84-1.72-3.84-3.84S6.52 4.8 8.64 4.8s3.84 1.72 3.84 3.84c-.002 2.12-1.72 3.838-3.84 3.84zM13.92 1.92c-.795 0-1.44.645-1.44 1.44 0 .795.645 1.44 1.44 1.44.795 0 1.44-.645 1.44-1.44 0-.795-.645-1.44-1.44-1.44zm0 1.92c-.265 0-.48-.215-.48-.48s.215-.48.48-.48.48.215.48.48-.215.48-.48.48z" transform="translate(6 6)"/>
                    </g>
                </g>
            </g>
        </g>
    </g>
</svg>
